<?xml version="1.0" encoding="utf-8"?>
<!-- Generator: Adobe Illustrator 24.1.1, SVG Export Plug-In . SVG Version: 6.00 Build 0)  -->
<svg version="1.1" id="katman_1" xmlns="http://www.w3.org/2000/svg" xmlns:xlink="http://www.w3.org/1999/xlink" x="0px" y="0px"
	 viewBox="0 0 1024 1024" style="enable-background:new 0 0 1024 1024;" xml:space="preserve">
<style type="text/css">
	.st0{fill:#74A6BA;}
	.st1{fill:#FFFFFF;}
	.st2{fill:#FEFDFA;}
</style>
<g>
	<path class="st0" d="M366.6,344.3c2.6,0,2.6,0,5.2,0c9.1,0,18.3,0,27.4-0.1c7.4,0,14.7,0,22.1-0.1c237.5-1.5,237.5-1.5,285.2,42.2
		c10.9,12.1,11.3,23.6,11,39c0,1.8,0,3.6-0.1,5.4c0,4.4-0.1,8.8-0.2,13.2c1.1,0,2.2,0,3.4-0.1c11.8-0.2,23.6-0.3,35.4-0.4
		c4.4,0,8.8-0.1,13.1-0.2c46.5-0.7,88.1,4.8,124.3,37.1c1.3,1.2,2.7,2.3,4.1,3.5c24.8,22.9,42.6,57.7,45,91.5
		c0.2,6.7,0.3,13.4,0.3,20.1c0,2.5,0,4.9,0,7.5c0,5.2,0,10.4,0,15.6c0,7.9,0.1,15.7,0.2,23.6c0.1,25.6,0.1,49.1-9,73.2
		c-0.8,2.2-1.5,4.4-2.3,6.6c-13.5,37.1-42.4,66.6-77.4,83.8c-31.6,14.3-59.9,15.7-94.1,15.3c-4.2,0-8.3-0.1-12.5-0.1
		c-10.1-0.1-20.3-0.2-30.4-0.3c-0.2,1.9-0.2,1.9-0.4,3.8c-0.2,1.6-0.3,3.3-0.5,5c-0.3,2.4-0.3,2.4-0.5,4.9
		c-3.6,28.5-20.1,56.6-39.1,77.5c-1.4,1.6-2.7,3.1-4.2,4.7c-19.8,21.2-46.5,35.9-75.3,40.6c-5.2,1.9-6.7,5.2-9.6,9.8
		c-10.2,13.9-25.7,21.2-42.5,23.9c-4,0.2-8,0.3-11.9,0.3c-2.4,0-4.8,0-7.2,0c-3.9,0-3.9,0-7.9,0c-2.8,0-5.6,0-8.4,0
		c-7.6,0-15.1,0-22.7,0c-4.7,0-9.5,0-14.2,0c-16.5,0-33,0-49.5,0c-15.4,0-30.7,0-46.1,0.1c-13.2,0-26.4,0-39.6,0
		c-7.9,0-15.8,0-23.6,0c-7.4,0-14.8,0-22.2,0c-4,0-8,0-12,0c-26.1-0.1-47.5-4.4-66.9-22.8c-1.1-2-2.2-4.1-3.3-6.2
		c-6.4-8-12.6-8.8-22.2-11.7c-21.7-7.4-39.4-20.9-55.5-36.8c-1.9-1.6-1.9-1.6-3.8-3.3c-18-16.4-31.3-40.5-38.8-63.5
		c-0.5-1.5-1-3-1.5-4.5c-5.9-20-5.4-39.7-5.3-60.4c0-4.1,0-8.1,0-12.2c0-11,0-22,0-33c0-11.5,0-23.1,0-34.6c0-19.3,0-38.7,0-58
		c0-22.4,0-44.7,0-67c0-19.2,0-38.4,0-57.7c0-11.5,0-22.9,0-34.4c0-10.8,0-21.5,0-32.3c0-3.9,0-7.9,0-11.8c0-5.4,0-10.8,0-16.2
		c0-1.6,0-3.1,0-4.7c0.1-11.9,2.6-21.3,10.1-30.9c24.5-21.7,58.9-24.8,90-30.3c1.7-0.3,3.4-0.6,5.2-0.9c22.4-3.9,45-6.3,67.7-8.4
		c2.6-0.2,5.2-0.5,7.9-0.8C297.7,345.7,332.1,344.4,366.6,344.3z"/>
	<path class="st1" d="M664.7,415.6c3.1,6.1,2.3,12.4,2.3,19.1c0,1.6,0,3.1,0,4.8c0,5.3,0,10.6,0,15.9c0,3.8,0,7.6,0,11.3
		c0,10.3,0,20.6,0,30.9c0,8.6,0,17.2,0,25.8c0,20.3,0,40.6,0,60.8c0,20.9,0,41.8,0.1,62.7c0,17.9,0,35.9,0,53.8
		c0,10.7,0,21.4,0,32.2c0,10.1,0,20.2,0,30.3c0,3.7,0,7.4,0,11.1c0.1,34.9-2.6,66.3-28.1,92.7c-16,14.6-31.1,22-53,21.5
		c-29.5-4-46.3-27.9-63.2-49.7c-6.6-8.5-13.4-16.9-20.2-25.3c-1.1-1.4-2.2-2.7-3.3-4.1c-11.3-14.4-11.3-14.4-27.2-22.9
		c-6.7-0.6-6.7-0.6-14-0.6c-1.4,0-2.7,0-4.1,0c-4.5,0-9,0-13.5,0c-3.1,0-6.3,0-9.4,0c-6.6,0-13.1,0-19.7,0c-8.4,0-16.8,0-25.2-0.1
		c-6.5,0-12.9,0-19.4,0c-3.1,0-6.2,0-9.3,0c-4.3,0-8.7,0-13,0c-2.5,0-4.9,0-7.5,0c-9.8,1.1-16.5,4.3-23.3,11.3c-2,2.6-2,2.6-4.1,5.3
		c-1.6,2-3.1,3.9-4.7,6c-1.7,2.2-3.4,4.4-5,6.6c-53,68.4-53,68.4-83,72.9c-20.4,2.1-35.1-4.4-51-17c-20-17.5-29.9-40.8-32.6-67
		c-0.3-5.4-0.6-10.9-0.7-16.3c-0.1-2.1-0.2-4.3-0.2-6.5c-1-33.5-0.9-67-0.8-100.5c0-5.9,0-11.7,0-17.6c0-28.3,0.1-56.6,0.2-84.9
		c0-2,0-3.9,0-6c0.1-24.2,0.3-48.4,0.5-72.6c0.1-6.9,0.1-13.7,0.2-20.6c0.1-8,0.1-16,0.2-24c0-2.9,0.1-5.8,0.1-8.8
		c0-4,0.1-7.9,0.1-11.9c0-2.2,0-4.4,0.1-6.7c0.9-6,2.1-7.9,6.9-11.5c1.6,0.5,1.6,0.5,3.3,1c5.6,1.7,11.3,3.4,17,5
		c2.2,0.6,4.4,1.3,6.6,1.9c72.8,19.7,150.1,20.9,225,21c4.3,0,8.5,0,12.8,0C477.1,444.8,604.4,398.7,664.7,415.6z"/>
	<path class="st1" d="M828.7,516.9c1.6,0.9,3.2,1.7,4.9,2.6c19.4,11.7,32.4,28.7,39.7,50.1c2.4,11,2.4,21.9,2.4,33.1c0,3,0,3,0,6.1
		c0,4.2,0,8.5,0,12.7c0,6.4,0,12.9,0.1,19.3c0,4.1,0,8.3,0,12.4c0,1.9,0,3.8,0,5.8c-0.1,28.1-8.6,49.6-28.1,70.1
		c-35.7,33.9-80.7,24.8-128.4,24.8c0-80.2,0-160.4,0-243C807.5,505.7,807.5,505.7,828.7,516.9z"/>
	<path class="st0" d="M249.2,558.6c2.3,0,4.7,0,7.1,0c2.4,0,4.9,0,7.4,0.1c2.4,0,4.9,0,7.4-0.1c3.5,0,3.5,0,7.1,0c2.1,0,4.3,0,6.5,0
		c5.4,0.8,5.4,0.8,9.2,3.1c3.3,5.3,3,9.2,2.9,15.4c0,3.4,0,3.4-0.1,6.9c-0.1,2.4-0.1,4.7-0.2,7.2c0,3.6,0,3.6-0.1,7.2
		c-0.1,5.9-0.2,11.8-0.3,17.7c1.5,0,2.9,0,4.4-0.1c6.6-0.1,13.1-0.1,19.7-0.2c2.3,0,4.6-0.1,6.9-0.1c2.2,0,4.4,0,6.6,0
		c2,0,4,0,6.1-0.1c4.9,0.5,4.9,0.5,9,4.5c0.8,8.7,0.7,17.3,0.6,26c0,4.3,0,8.6,0.1,13c0,2.7,0,5.5,0,8.2c0,2.5,0,5,0,7.6
		c-0.2,2-0.5,3.9-0.8,6c-6.8,4.5-8.9,4.5-16.9,4.4c-3.1,0-3.1,0-6.3,0c-2.2,0-4.3-0.1-6.6-0.1c-3.3,0-3.3,0-6.6-0.1
		c-5.4,0-10.8-0.1-16.3-0.2c0,2.3,0,2.3,0.1,4.6c0.1,6.8,0.1,13.7,0.2,20.5c0,2.4,0.1,4.8,0.1,7.2c0,3.4,0,3.4,0,6.9
		c0,3.2,0,3.2,0.1,6.4c-0.5,5.1-0.5,5.1-4.5,9.2c-5.6,0.5-5.6,0.5-12.7,0.5c-3.8,0-3.8,0-7.7,0c-4,0-4,0-8,0c-2.7,0-5.3,0-8,0
		c-2.5,0-5.1,0-7.7,0c-2.3,0-4.7,0-7.1,0c-5.6-0.5-5.6-0.5-9.7-4.6c-0.5-5.1-0.5-5.1-0.4-11.5c0-2.3,0-4.5,0-6.9
		c0-2.4,0.1-4.8,0.1-7.2c0-2.4,0-4.8,0.1-7.3c0-5.9,0.1-11.9,0.2-17.8c-1.4,0-2.7,0.1-4.1,0.1c-6.2,0.2-12.4,0.3-18.6,0.4
		c-2.2,0.1-4.3,0.1-6.5,0.2c-2.1,0-4.2,0.1-6.3,0.1c-1.9,0-3.8,0.1-5.8,0.1c-6.9-1.2-9.2-3.3-13.3-9c-1-5.8-1-5.8-1-12.5
		c0-2.4,0-4.8,0-7.3c0-2.5,0.1-5,0.1-7.6c0-2.5,0-5,0-7.6c0.1-18.3,0.1-18.3,3.3-23.3c5.1-3.2,8.9-3,14.9-2.9c3.3,0,3.3,0,6.6,0.1
		c2.3,0.1,4.5,0.1,6.9,0.2c2.3,0,4.6,0.1,6.9,0.1c5.7,0.1,11.3,0.2,17,0.3c0-1.5-0.1-3-0.1-4.6c-0.1-6.8-0.2-13.6-0.3-20.4
		c-0.1-2.4-0.1-4.7-0.2-7.2c0-2.3,0-4.5-0.1-6.9c0-2.1-0.1-4.2-0.1-6.3c0.7-5.3,0.7-5.3,3-9.1C238.9,558.5,243,558.7,249.2,558.6z"
		/>
	<path class="st0" d="M328.5,34.9c16.7,0,33.4,0,50.6,0c0,45.5,0,90.9,0,137.7c-14.7,0-29.4,0-44.6,0c0,16.7,0,33.4,0,50.6
		c14,0,28.1,0,42.5,0c0,30.7,0,61.5,0,93.2c-15.4,0-30.7,0-46.6,0c0-16,0-32.1,0-48.6c-13.8,0.2-13.8,0.2-27.6,0.4
		c-1.7,0-3.4,0-5.2,0c-2.6,0-2.6,0-5.3,0.1c-4.4-0.5-4.4-0.5-8.4-4.5c-0.5-5.6-0.5-5.6-0.5-12.9c0-1.3,0-2.6,0-4c0-4.4,0-8.7,0-13.1
		c0-3,0-6.1,0-9.1c0-6.4,0-12.7,0-19.1c0-8.2,0-16.3,0-24.5c0-6.3,0-12.5,0-18.8c0-3,0-6,0-9c0-4.2,0-8.4,0-12.6c0-2.4,0-4.8,0-7.3
		c0.3-5.4,0.3-5.4,2.3-7.4c14,0,28.1,0,42.5,0C328.5,95.9,328.5,65.9,328.5,34.9z"/>
	<path class="st0" d="M450,34.9c16.7,0,33.4,0,50.6,0c0,45.5,0,90.9,0,137.7c-14.7,0-29.4,0-44.6,0c0,16.7,0,33.4,0,50.6
		c14.7,0,29.4,0,44.6,0c0.1,12.6,0.2,25.2,0.2,37.9c0,4.3,0,8.6,0.1,12.9c0,6.2,0.1,12.3,0.1,18.5c0,2.9,0,2.9,0.1,5.8
		c0,2.7,0,2.7,0,5.4c0,1.6,0,3.1,0,4.8c-0.5,3.9-0.5,3.9-4.5,7.9c-4.7,0.5-4.7,0.5-10.6,0.4c-1.9,0-3.8,0-5.7,0
		c-2.4,0-4.8-0.1-7.3-0.1c-7.6-0.1-15.2-0.2-23-0.3c0-16,0-32.1,0-48.6c-12.6,0.1-12.6,0.1-25.1,0.2c-1.6,0-3.1,0-4.7,0
		c-1.6,0-3.2,0-4.9,0c-3.8-0.2-3.8-0.2-5.8-2.3c-0.2-4.3-0.2-8.7-0.2-13.1c0-1.4,0-2.7,0-4.1c0-4.5,0-9.1,0-13.6c0-3.1,0-6.3,0-9.4
		c0-8.3,0-16.5,0.1-24.8c0-8.4,0-16.8,0-25.3c0-16.5,0.1-33.1,0.1-49.6c13.4,0,26.7,0,40.5,0C450,95.9,450,65.9,450,34.9z"/>
	<path class="st0" d="M495,619.2c8.9,5.1,14,11.8,17.7,21.3c2.3,10.4-0.1,19.5-5.3,28.7c-6.3,8.3-13.8,12.9-24.1,14.7
		c-12.1,0.6-19.7-1.7-29.4-9c-8.3-10.7-11.2-18.8-10.1-32.4c3.4-11.5,9.3-18.8,19.8-24.6C474.5,613.7,484.5,614.8,495,619.2z"/>
	<path class="st0" d="M551.5,676.8c9.1,5.2,15.6,10.6,20,20.4c1.5,10.5,1.6,20.6-3.2,30.3c-7.5,9.5-15.3,14-27.2,16.2
		c-8.8,0.7-14.7-1.4-22.3-5.9c-9-8.6-14.4-16-14.9-28.7c0.2-10.7,3.6-18.1,10.9-26C525.8,674.7,538.6,671.2,551.5,676.8z"/>
	<path class="st0" d="M612.6,617.9c9.6,5.4,16.3,11.9,19.7,22.5c1.9,10.1,0.9,18-4.2,27c-6.7,9.4-13.5,14.4-25,16.4
		c-11.3,0.7-18.8-1.6-28.2-7.8c-6.3-5.9-9.2-11.1-10.4-19.7c0-18,0-18,4-27.2C581.1,616.6,595.3,611.3,612.6,617.9z"/>
	<path class="st0" d="M549.2,557.4c10.1,5,17.2,12.1,22.3,22.3c1.1,10.6,1.3,19.5-3.4,29.2c-7.3,8.1-13.7,14.5-25,15.8
		c-12,0.4-18.6-1.5-28.3-8.6c-9.3-10-10.9-18.1-10.7-31.4c1.1-10,6.7-15.5,14-21.9C528,555.8,537.3,556.2,549.2,557.4z"/>
	<path class="st2" d="M448,32.8c9,0,18-0.1,27.2-0.1c2.8,0,5.7,0,8.6-0.1c3.3,0,3.3,0,6.7,0c2.3,0,4.6,0,6.9,0
		c5.2,0.2,5.2,0.2,7.3,2.3c0.2,4.3,0.3,8.5,0.3,12.8c0,1.3,0,2.7,0,4.1c0,4.4,0,8.9,0,13.3c0,3.1,0,6.2,0,9.2c0,6.5,0,12.9,0,19.4
		c0,8.3,0,16.6,0.1,24.9c0,6.4,0,12.7,0,19.1c0,3.1,0,6.1,0,9.2c0,4.3,0,8.5,0,12.8c0,2.4,0,4.9,0,7.4c-0.5,5.7-0.5,5.7-4.6,9.8
		c-4.2,0.5-4.2,0.5-9.3,0.4c-1.6,0-3.3,0-5,0c-2.1,0-4.2-0.1-6.3-0.1c-6.6-0.1-13.2-0.2-20-0.3c0,14.7,0,29.4,0,44.6
		c12.7,0,25.4,0,38.5,0c0,0.7,0,1.3,0,2c-14,0-28.1,0-42.5,0c0-16.7,0-33.4,0-50.6c14.7,0,29.4,0,44.6,0c0-45.5,0-90.9,0-137.7
		c-16.7,0-33.4,0-50.6,0c0,30.1,0,60.2,0,91.1c-14,0-28.1,0-42.5,0c0,45.5,0,90.9,0,137.7c-0.7,0-1.3,0-2,0c0-46.1,0-92.2,0-139.8
		c12.7-6.3,28.3-2,42.5-2C448,92.6,448,63.1,448,32.8z"/>
</g>
</svg>
